# MagicaVoxel @ Ephtracy

# material
mtllib Rem.mtl
usemtl palette

# normals
vn -1 0 0
vn 1 0 0
vn 0 0 1
vn 0 0 -1
vn 0 -1 0
vn 0 1 0

# texcoords
vt 0.00195313 0.5
vt 0.0332031 0.5
vt 0.400391 0.5
vt 0.587891 0.5
vt 0.990234 0.5
vt 0.994141 0.5

# verts
v -4 3 2
v -4 3 -2
v -4 4 2
v -4 4 -2
v -4 9 2
v -4 9 -0
v -4 10 2
v -4 10 -0
v -4 12 2
v -4 12 -2
v -4 14 2
v -4 14 -2
v -4 19 1
v -4 19 -0
v -4 20 1
v -4 20 -0
v -3 3 3
v -3 3 2
v -3 3 -2
v -3 3 -3
v -3 4 3
v -3 4 2
v -3 4 -2
v -3 5 3
v -3 5 2
v -3 6 3
v -3 6 2
v -3 7 3
v -3 7 2
v -3 8 3
v -3 8 2
v -3 8 -2
v -3 8 -3
v -3 9 3
v -3 9 2
v -3 9 -0
v -3 9 -1
v -3 9 -2
v -3 10 3
v -3 10 2
v -3 10 -0
v -3 12 -0
v -3 12 -1
v -3 15 2
v -3 15 -2
v -3 16 3
v -3 16 2
v -3 16 -2
v -3 16 -3
v -3 17 1
v -3 17 -0
v -3 19 1
v -3 19 -0
v -3 20 3
v -3 20 2
v -3 20 1
v -3 20 -0
v -3 20 -2
v -3 20 -3
v -3 21 2
v -3 21 1
v -3 21 -0
v -3 21 -2
v -2 0 1
v -2 0 -0
v -2 1 1
v -2 1 -0
v -2 3 4
v -2 3 3
v -2 3 1
v -2 3 -0
v -2 3 -3
v -2 3 -4
v -2 4 4
v -2 4 3
v -2 4 -3
v -2 4 -4
v -2 6 3
v -2 6 2
v -2 7 3
v -2 7 2
v -2 8 3
v -2 8 2
v -2 9 3
v -2 9 2
v -2 10 2
v -2 10 -0
v -2 12 2
v -2 12 -0
v -2 15 3
v -2 15 2
v -2 15 -2
v -2 15 -3
v -2 16 3
v -2 16 2
v -2 16 -2
v -2 16 -3
v -2 20 3
v -2 20 2
v -2 20 -2
v -2 20 -3
v -2 21 3
v -2 21 2
v -2 21 1
v -2 21 -0
v -2 21 -2
v -2 21 -3
v -2 22 1
v -2 22 -0
v -1 14 1
v -1 14 -1
v -1 15 1
v -1 15 -1
v 1 0 1
v 1 0 -0
v 1 1 1
v 1 1 -0
v 1 3 1
v 1 3 -0
v 1 21 1
v 1 21 -0
v 1 22 1
v 1 22 -0
v 2 9 3
v 2 9 2
v 2 10 3
v 2 10 2
v 2 12 -1
v 2 12 -2
v 2 13 2
v 2 13 1
v 2 14 2
v 2 14 1
v 2 14 -1
v 2 14 -2
v -2 9 3
v -2 9 2
v -2 10 3
v -2 10 2
v -2 12 -1
v -2 12 -2
v -2 13 2
v -2 13 1
v -2 14 2
v -2 14 1
v -2 14 -1
v -2 14 -2
v -1 0 1
v -1 0 -0
v -1 1 1
v -1 1 -0
v -1 3 1
v -1 3 -0
v -1 21 1
v -1 21 -0
v -1 22 1
v -1 22 -0
v 1 14 1
v 1 14 -1
v 1 15 1
v 1 15 -1
v 2 0 1
v 2 0 -0
v 2 1 1
v 2 1 -0
v 2 3 4
v 2 3 3
v 2 3 1
v 2 3 -0
v 2 3 -3
v 2 3 -4
v 2 4 4
v 2 4 3
v 2 4 -3
v 2 4 -4
v 2 6 3
v 2 6 2
v 2 7 3
v 2 7 2
v 2 8 3
v 2 8 2
v 2 9 3
v 2 9 2
v 2 10 2
v 2 10 -0
v 2 12 2
v 2 12 -0
v 2 15 3
v 2 15 2
v 2 15 -2
v 2 15 -3
v 2 16 3
v 2 16 2
v 2 16 -2
v 2 16 -3
v 2 20 3
v 2 20 2
v 2 20 -2
v 2 20 -3
v 2 21 3
v 2 21 2
v 2 21 1
v 2 21 -0
v 2 21 -2
v 2 21 -3
v 2 22 1
v 2 22 -0
v 3 3 3
v 3 3 2
v 3 3 -2
v 3 3 -3
v 3 4 3
v 3 4 2
v 3 4 -2
v 3 5 3
v 3 5 2
v 3 6 3
v 3 6 2
v 3 7 3
v 3 7 2
v 3 8 3
v 3 8 2
v 3 8 -2
v 3 8 -3
v 3 9 3
v 3 9 2
v 3 9 -0
v 3 9 -1
v 3 9 -2
v 3 10 3
v 3 10 2
v 3 10 -0
v 3 12 -0
v 3 12 -1
v 3 15 2
v 3 15 -2
v 3 16 3
v 3 16 2
v 3 16 -2
v 3 16 -3
v 3 17 1
v 3 17 -0
v 3 18 3
v 3 18 2
v 3 19 3
v 3 19 2
v 3 19 1
v 3 19 -0
v 3 20 3
v 3 20 2
v 3 20 1
v 3 20 -0
v 3 20 -2
v 3 20 -3
v 3 21 2
v 3 21 1
v 3 21 -0
v 3 21 -2
v 4 3 2
v 4 3 -2
v 4 4 2
v 4 4 -2
v 4 9 2
v 4 9 -0
v 4 10 2
v 4 10 -0
v 4 12 2
v 4 12 -2
v 4 14 2
v 4 14 -2
v 4 19 1
v 4 19 -0
v 4 20 1
v 4 20 -0
v -2 3 4
v -2 4 4
v 2 3 4
v 2 4 4
v -3 3 3
v -3 4 3
v -3 5 3
v -3 6 3
v -3 7 3
v -3 8 3
v -3 9 3
v -3 10 3
v -3 16 3
v -3 20 3
v -2 3 3
v -2 4 3
v -2 6 3
v -2 7 3
v -2 8 3
v -2 9 3
v -2 10 3
v -2 15 3
v -2 16 3
v -2 20 3
v -2 21 3
v -1 5 3
v -1 6 3
v 0 16 3
v 0 18 3
v 1 5 3
v 1 6 3
v 1 16 3
v 1 18 3
v 2 3 3
v 2 4 3
v 2 6 3
v 2 7 3
v 2 8 3
v 2 9 3
v 2 10 3
v 2 15 3
v 2 16 3
v 2 18 3
v 2 19 3
v 2 20 3
v 2 21 3
v 3 3 3
v 3 4 3
v 3 5 3
v 3 6 3
v 3 7 3
v 3 8 3
v 3 9 3
v 3 10 3
v 3 16 3
v 3 18 3
v 3 19 3
v 3 20 3
v -4 3 2
v -4 4 2
v -4 9 2
v -4 10 2
v -4 12 2
v -4 14 2
v -3 3 2
v -3 4 2
v -3 5 2
v -3 6 2
v -3 7 2
v -3 8 2
v -3 9 2
v -3 10 2
v -3 15 2
v -3 16 2
v -3 20 2
v -3 21 2
v -2 4 2
v -2 6 2
v -2 7 2
v -2 8 2
v -2 9 2
v -2 10 2
v -2 12 2
v -2 13 2
v -2 14 2
v -2 15 2
v -2 16 2
v -2 20 2
v -2 21 2
v -1 5 2
v -1 11 2
v -1 12 2
v 1 5 2
v 1 11 2
v 1 12 2
v 2 4 2
v 2 6 2
v 2 7 2
v 2 8 2
v 2 9 2
v 2 10 2
v 2 12 2
v 2 13 2
v 2 14 2
v 2 15 2
v 2 16 2
v 2 20 2
v 2 21 2
v 3 3 2
v 3 4 2
v 3 5 2
v 3 6 2
v 3 7 2
v 3 8 2
v 3 9 2
v 3 10 2
v 3 15 2
v 3 16 2
v 3 20 2
v 3 21 2
v 4 3 2
v 4 4 2
v 4 9 2
v 4 10 2
v 4 12 2
v 4 14 2
v -4 19 1
v -4 20 1
v -3 19 1
v -3 20 1
v -2 0 1
v -2 1 1
v -2 3 1
v -2 13 1
v -2 14 1
v -2 21 1
v -2 22 1
v -1 0 1
v -1 1 1
v -1 3 1
v -1 13 1
v -1 14 1
v -1 15 1
v -1 21 1
v -1 22 1
v 1 0 1
v 1 1 1
v 1 3 1
v 1 13 1
v 1 14 1
v 1 15 1
v 1 21 1
v 1 22 1
v 2 0 1
v 2 1 1
v 2 3 1
v 2 13 1
v 2 14 1
v 2 21 1
v 2 22 1
v 3 19 1
v 3 20 1
v 4 19 1
v 4 20 1
v -3 10 -0
v -3 12 -0
v -2 10 -0
v -2 12 -0
v 2 10 -0
v 2 12 -0
v 3 10 -0
v 3 12 -0
v -4 9 -0
v -4 10 -0
v -4 19 -0
v -4 20 -0
v -3 9 -0
v -3 10 -0
v -3 19 -0
v -3 20 -0
v -2 0 -0
v -2 1 -0
v -2 3 -0
v -2 21 -0
v -2 22 -0
v -1 0 -0
v -1 1 -0
v -1 3 -0
v -1 21 -0
v -1 22 -0
v 1 0 -0
v 1 1 -0
v 1 3 -0
v 1 21 -0
v 1 22 -0
v 2 0 -0
v 2 1 -0
v 2 3 -0
v 2 21 -0
v 2 22 -0
v 3 9 -0
v 3 10 -0
v 3 19 -0
v 3 20 -0
v 4 9 -0
v 4 10 -0
v 4 19 -0
v 4 20 -0
v -3 9 -1
v -3 12 -1
v -2 9 -1
v -2 10 -1
v -2 12 -1
v -2 14 -1
v -1 10 -1
v -1 13 -1
v -1 14 -1
v -1 15 -1
v 1 10 -1
v 1 13 -1
v 1 14 -1
v 1 15 -1
v 2 9 -1
v 2 10 -1
v 2 12 -1
v 2 14 -1
v 3 9 -1
v 3 12 -1
v -4 3 -2
v -4 4 -2
v -4 12 -2
v -4 14 -2
v -3 3 -2
v -3 4 -2
v -3 8 -2
v -3 9 -2
v -3 15 -2
v -3 16 -2
v -3 20 -2
v -3 21 -2
v -2 12 -2
v -2 14 -2
v -2 15 -2
v -2 16 -2
v -2 20 -2
v -2 21 -2
v 2 12 -2
v 2 14 -2
v 2 15 -2
v 2 16 -2
v 2 20 -2
v 2 21 -2
v 3 3 -2
v 3 4 -2
v 3 8 -2
v 3 9 -2
v 3 15 -2
v 3 16 -2
v 3 20 -2
v 3 21 -2
v 4 3 -2
v 4 4 -2
v 4 12 -2
v 4 14 -2
v -3 3 -3
v -3 8 -3
v -3 16 -3
v -3 20 -3
v -2 3 -3
v -2 4 -3
v -2 15 -3
v -2 16 -3
v -2 20 -3
v -2 21 -3
v 2 3 -3
v 2 4 -3
v 2 15 -3
v 2 16 -3
v 2 20 -3
v 2 21 -3
v 3 3 -3
v 3 8 -3
v 3 16 -3
v 3 20 -3
v -2 3 -4
v -2 4 -4
v 2 3 -4
v 2 4 -4
v -2 0 1
v -1 0 1
v 1 0 1
v 2 0 1
v -2 0 -0
v -1 0 -0
v 1 0 -0
v 2 0 -0
v -2 3 4
v 2 3 4
v -3 3 3
v -2 3 3
v 2 3 3
v 3 3 3
v -4 3 2
v -3 3 2
v -2 3 2
v 2 3 2
v 3 3 2
v 4 3 2
v -2 3 1
v -1 3 1
v 1 3 1
v 2 3 1
v -2 3 -0
v -1 3 -0
v 1 3 -0
v 2 3 -0
v -4 3 -2
v -3 3 -2
v 3 3 -2
v 4 3 -2
v -3 3 -3
v -2 3 -3
v 2 3 -3
v 3 3 -3
v -2 3 -4
v 2 3 -4
v -3 5 3
v -1 5 3
v 1 5 3
v 3 5 3
v -3 5 2
v -1 5 2
v 1 5 2
v 3 5 2
v -3 7 3
v -2 7 3
v 2 7 3
v 3 7 3
v -3 7 2
v -2 7 2
v 2 7 2
v 3 7 2
v -3 9 3
v -2 9 3
v 2 9 3
v 3 9 3
v -4 9 2
v -3 9 2
v -2 9 2
v 2 9 2
v 3 9 2
v 4 9 2
v -4 9 -0
v -3 9 -0
v 3 9 -0
v 4 9 -0
v -4 12 2
v -2 12 2
v 2 12 2
v 4 12 2
v -3 12 -0
v -2 12 -0
v 2 12 -0
v 3 12 -0
v -3 12 -1
v -2 12 -1
v 2 12 -1
v 3 12 -1
v -4 12 -2
v -2 12 -2
v 2 12 -2
v 4 12 -2
v -2 15 3
v 2 15 3
v -3 15 2
v -2 15 2
v 2 15 2
v 3 15 2
v -1 15 1
v 1 15 1
v -2 15 -1
v -1 15 -1
v 1 15 -1
v 2 15 -1
v -3 15 -2
v -2 15 -2
v 2 15 -2
v 3 15 -2
v -2 15 -3
v 2 15 -3
v -3 16 3
v -2 16 3
v 2 16 3
v 3 16 3
v -3 16 2
v -2 16 2
v 2 16 2
v 3 16 2
v -3 16 -2
v -2 16 -2
v 2 16 -2
v 3 16 -2
v -3 16 -3
v -2 16 -3
v 2 16 -3
v 3 16 -3
v -4 19 1
v -3 19 1
v 3 19 1
v 4 19 1
v -4 19 -0
v -3 19 -0
v 3 19 -0
v 4 19 -0
v -2 4 4
v 2 4 4
v -3 4 3
v -2 4 3
v 2 4 3
v 3 4 3
v -4 4 2
v -3 4 2
v -2 4 2
v 2 4 2
v 3 4 2
v 4 4 2
v -4 4 -2
v -3 4 -2
v 3 4 -2
v 4 4 -2
v -2 4 -3
v 2 4 -3
v -2 4 -4
v 2 4 -4
v -3 6 3
v -2 6 3
v 2 6 3
v 3 6 3
v -3 6 2
v -2 6 2
v 2 6 2
v 3 6 2
v -3 8 3
v -2 8 3
v 2 8 3
v 3 8 3
v -3 8 2
v -2 8 2
v 2 8 2
v 3 8 2
v -3 8 -2
v 3 8 -2
v -3 8 -3
v 3 8 -3
v -2 9 3
v 2 9 3
v -2 9 2
v 2 9 2
v -3 9 -1
v -2 9 -1
v 2 9 -1
v 3 9 -1
v -3 9 -2
v 3 9 -2
v -3 10 3
v -2 10 3
v 2 10 3
v 3 10 3
v -4 10 2
v -3 10 2
v -2 10 2
v 2 10 2
v 3 10 2
v 4 10 2
v -4 10 -0
v -3 10 -0
v -2 10 -0
v 2 10 -0
v 3 10 -0
v 4 10 -0
v -2 13 2
v 2 13 2
v -2 13 1
v -1 13 1
v 1 13 1
v 2 13 1
v -4 14 2
v -2 14 2
v 2 14 2
v 4 14 2
v -2 14 1
v -1 14 1
v 1 14 1
v 2 14 1
v -2 14 -1
v -1 14 -1
v 1 14 -1
v 2 14 -1
v -4 14 -2
v -2 14 -2
v 2 14 -2
v 4 14 -2
v -3 20 3
v -2 20 3
v 2 20 3
v 3 20 3
v -3 20 2
v -2 20 2
v 2 20 2
v 3 20 2
v -4 20 1
v -3 20 1
v 3 20 1
v 4 20 1
v -4 20 -0
v -3 20 -0
v 3 20 -0
v 4 20 -0
v -3 20 -2
v -2 20 -2
v 2 20 -2
v 3 20 -2
v -3 20 -3
v -2 20 -3
v 2 20 -3
v 3 20 -3
v -2 21 3
v 2 21 3
v -3 21 2
v -2 21 2
v 2 21 2
v 3 21 2
v -3 21 1
v -2 21 1
v -1 21 1
v 1 21 1
v 2 21 1
v 3 21 1
v -3 21 -0
v -2 21 -0
v -1 21 -0
v 1 21 -0
v 2 21 -0
v 3 21 -0
v -3 21 -2
v -2 21 -2
v 2 21 -2
v 3 21 -2
v -2 21 -3
v 2 21 -3
v -2 22 1
v -1 22 1
v 1 22 1
v 2 22 1
v -2 22 -0
v -1 22 -0
v 1 22 -0
v 2 22 -0

# faces
f 3/1/1 2/1/1 1/1/1
f 4/1/1 2/1/1 3/1/1
f 7/6/1 6/6/1 5/6/1
f 8/6/1 6/6/1 7/6/1
f 11/1/1 10/1/1 9/1/1
f 12/1/1 10/1/1 11/1/1
f 15/1/1 14/1/1 13/1/1
f 16/1/1 14/1/1 15/1/1
f 21/1/1 18/1/1 17/1/1
f 22/1/1 18/1/1 21/1/1
f 23/6/1 20/6/1 19/6/1
f 25/6/1 23/6/1 22/6/1
f 26/1/1 25/1/1 24/1/1
f 27/6/1 23/6/1 25/6/1
f 27/1/1 25/1/1 26/1/1
f 29/6/1 23/6/1 27/6/1
f 30/1/1 29/1/1 28/1/1
f 31/6/1 23/6/1 29/6/1
f 31/1/1 29/1/1 30/1/1
f 32/6/1 20/6/1 23/6/1
f 32/6/1 23/6/1 31/6/1
f 33/6/1 20/6/1 32/6/1
f 35/6/1 32/6/1 31/6/1
f 36/6/1 32/6/1 35/6/1
f 37/6/1 32/6/1 36/6/1
f 38/6/1 32/6/1 37/6/1
f 39/2/1 35/2/1 34/2/1
f 40/2/1 35/2/1 39/2/1
f 41/2/1 37/2/1 36/2/1
f 42/2/1 37/2/1 41/2/1
f 43/2/1 37/2/1 42/2/1
f 47/4/1 45/4/1 44/4/1
f 48/4/1 45/4/1 47/4/1
f 50/4/1 48/4/1 47/4/1
f 50/4/1 49/4/1 48/4/1
f 50/4/1 47/4/1 46/4/1
f 51/4/1 49/4/1 50/4/1
f 52/4/1 50/4/1 46/4/1
f 52/6/1 51/6/1 50/6/1
f 53/4/1 49/4/1 51/4/1
f 53/6/1 51/6/1 52/6/1
f 54/4/1 52/4/1 46/4/1
f 55/4/1 52/4/1 54/4/1
f 56/4/1 52/4/1 55/4/1
f 57/4/1 49/4/1 53/4/1
f 58/4/1 49/4/1 57/4/1
f 59/4/1 49/4/1 58/4/1
f 60/4/1 56/4/1 55/4/1
f 61/6/1 57/6/1 56/6/1
f 61/4/1 56/4/1 60/4/1
f 62/4/1 58/4/1 57/4/1
f 62/6/1 57/6/1 61/6/1
f 63/4/1 58/4/1 62/4/1
f 66/6/1 65/6/1 64/6/1
f 67/6/1 65/6/1 66/6/1
f 70/1/1 67/1/1 66/1/1
f 71/1/1 67/1/1 70/1/1
f 74/1/1 69/1/1 68/1/1
f 75/1/1 69/1/1 74/1/1
f 76/1/1 73/1/1 72/1/1
f 77/1/1 73/1/1 76/1/1
f 80/1/1 79/1/1 78/1/1
f 81/1/1 79/1/1 80/1/1
f 84/1/1 83/1/1 82/1/1
f 85/1/1 83/1/1 84/1/1
f 88/1/1 87/1/1 86/1/1
f 89/1/1 87/1/1 88/1/1
f 94/2/1 91/2/1 90/2/1
f 95/2/1 91/2/1 94/2/1
f 96/4/1 93/4/1 92/4/1
f 97/4/1 93/4/1 96/4/1
f 102/4/1 99/4/1 98/4/1
f 103/4/1 99/4/1 102/4/1
f 106/4/1 101/4/1 100/4/1
f 107/4/1 101/4/1 106/4/1
f 108/1/1 105/1/1 104/1/1
f 109/1/1 105/1/1 108/1/1
f 112/2/1 111/2/1 110/2/1
f 113/2/1 111/2/1 112/2/1
f 116/6/1 115/6/1 114/6/1
f 117/6/1 115/6/1 116/6/1
f 118/1/1 117/1/1 116/1/1
f 119/1/1 117/1/1 118/1/1
f 122/1/1 121/1/1 120/1/1
f 123/1/1 121/1/1 122/1/1
f 126/2/1 125/2/1 124/2/1
f 127/2/1 125/2/1 126/2/1
f 132/1/1 131/1/1 130/1/1
f 133/1/1 131/1/1 132/1/1
f 134/1/1 129/1/1 128/1/1
f 135/1/1 129/1/1 134/1/1
f 136/2/2 137/2/2 138/2/2
f 138/2/2 137/2/2 139/2/2
f 142/1/2 143/1/2 144/1/2
f 144/1/2 143/1/2 145/1/2
f 140/1/2 141/1/2 146/1/2
f 146/1/2 141/1/2 147/1/2
f 148/6/2 149/6/2 150/6/2
f 150/6/2 149/6/2 151/6/2
f 150/1/2 151/1/2 152/1/2
f 152/1/2 151/1/2 153/1/2
f 154/1/2 155/1/2 156/1/2
f 156/1/2 155/1/2 157/1/2
f 158/2/2 159/2/2 160/2/2
f 160/2/2 159/2/2 161/2/2
f 162/6/2 163/6/2 164/6/2
f 164/6/2 163/6/2 165/6/2
f 164/1/2 165/1/2 168/1/2
f 168/1/2 165/1/2 169/1/2
f 166/1/2 167/1/2 172/1/2
f 172/1/2 167/1/2 173/1/2
f 170/1/2 171/1/2 174/1/2
f 174/1/2 171/1/2 175/1/2
f 176/1/2 177/1/2 178/1/2
f 178/1/2 177/1/2 179/1/2
f 180/1/2 181/1/2 182/1/2
f 182/1/2 181/1/2 183/1/2
f 184/1/2 185/1/2 186/1/2
f 186/1/2 185/1/2 187/1/2
f 188/2/2 189/2/2 192/2/2
f 192/2/2 189/2/2 193/2/2
f 190/4/2 191/4/2 194/4/2
f 194/4/2 191/4/2 195/4/2
f 196/4/2 197/4/2 200/4/2
f 200/4/2 197/4/2 201/4/2
f 198/4/2 199/4/2 204/4/2
f 204/4/2 199/4/2 205/4/2
f 202/1/2 203/1/2 206/1/2
f 206/1/2 203/1/2 207/1/2
f 208/1/2 209/1/2 212/1/2
f 212/1/2 209/1/2 213/1/2
f 210/6/2 211/6/2 214/6/2
f 213/6/2 214/6/2 216/6/2
f 215/1/2 216/1/2 217/1/2
f 216/6/2 214/6/2 218/6/2
f 217/1/2 216/1/2 218/1/2
f 218/6/2 214/6/2 220/6/2
f 219/1/2 220/1/2 221/1/2
f 220/6/2 214/6/2 222/6/2
f 221/1/2 220/1/2 222/1/2
f 214/6/2 211/6/2 223/6/2
f 222/6/2 214/6/2 223/6/2
f 223/6/2 211/6/2 224/6/2
f 222/6/2 223/6/2 226/6/2
f 226/6/2 223/6/2 227/6/2
f 227/6/2 223/6/2 228/6/2
f 228/6/2 223/6/2 229/6/2
f 225/2/2 226/2/2 230/2/2
f 230/2/2 226/2/2 231/2/2
f 227/2/2 228/2/2 232/2/2
f 232/2/2 228/2/2 233/2/2
f 233/2/2 228/2/2 234/2/2
f 235/4/2 236/4/2 238/4/2
f 238/4/2 236/4/2 239/4/2
f 238/4/2 239/4/2 241/4/2
f 239/4/2 240/4/2 241/4/2
f 237/4/2 238/4/2 241/4/2
f 241/4/2 240/4/2 242/4/2
f 237/4/2 241/4/2 243/4/2
f 243/4/2 241/4/2 244/4/2
f 243/3/2 244/3/2 245/3/2
f 244/4/2 241/4/2 246/4/2
f 245/3/2 244/3/2 246/3/2
f 241/6/2 242/6/2 247/6/2
f 246/4/2 241/4/2 247/4/2
f 242/4/2 240/4/2 248/4/2
f 247/6/2 242/6/2 248/6/2
f 246/4/2 247/4/2 249/4/2
f 245/4/2 246/4/2 249/4/2
f 249/4/2 247/4/2 250/4/2
f 250/4/2 247/4/2 251/4/2
f 248/4/2 240/4/2 252/4/2
f 252/4/2 240/4/2 253/4/2
f 253/4/2 240/4/2 254/4/2
f 250/4/2 251/4/2 255/4/2
f 251/6/2 252/6/2 256/6/2
f 255/4/2 251/4/2 256/4/2
f 252/4/2 253/4/2 257/4/2
f 256/6/2 252/6/2 257/6/2
f 257/4/2 253/4/2 258/4/2
f 259/1/2 260/1/2 261/1/2
f 261/1/2 260/1/2 262/1/2
f 263/6/2 264/6/2 265/6/2
f 265/6/2 264/6/2 266/6/2
f 267/1/2 268/1/2 269/1/2
f 269/1/2 268/1/2 270/1/2
f 271/1/2 272/1/2 273/1/2
f 273/1/2 272/1/2 274/1/2
f 277/1/3 276/1/3 275/1/3
f 278/1/3 276/1/3 277/1/3
f 289/1/3 280/1/3 279/1/3
f 290/1/3 280/1/3 289/1/3
f 291/1/3 282/1/3 281/1/3
f 292/1/3 284/1/3 283/1/3
f 293/1/3 284/1/3 292/1/3
f 294/2/3 286/2/3 285/2/3
f 295/2/3 286/2/3 294/2/3
f 297/4/3 288/4/3 287/4/3
f 298/4/3 288/4/3 297/4/3
f 300/1/3 291/1/3 281/1/3
f 300/1/3 293/1/3 292/1/3
f 300/1/3 292/1/3 291/1/3
f 300/1/3 294/1/3 293/1/3
f 301/1/3 294/1/3 300/1/3
f 302/4/3 299/4/3 298/4/3
f 302/4/3 298/4/3 297/4/3
f 302/2/3 297/2/3 296/2/3
f 303/4/3 299/4/3 302/4/3
f 304/6/3 301/6/3 300/6/3
f 305/1/3 294/1/3 301/1/3
f 305/6/3 301/6/3 304/6/3
f 306/2/3 302/2/3 296/2/3
f 306/2/3 303/2/3 302/2/3
f 307/4/3 299/4/3 303/4/3
f 307/2/3 303/2/3 306/2/3
f 310/1/3 294/1/3 305/1/3
f 310/1/3 305/1/3 304/1/3
f 311/1/3 294/1/3 310/1/3
f 312/1/3 294/1/3 311/1/3
f 313/1/3 294/1/3 312/1/3
f 315/2/3 306/2/3 296/2/3
f 316/5/3 307/5/3 306/5/3
f 316/2/3 306/2/3 315/2/3
f 317/4/3 299/4/3 307/4/3
f 317/5/3 307/5/3 316/5/3
f 318/4/3 299/4/3 317/4/3
f 319/4/3 299/4/3 318/4/3
f 320/4/3 299/4/3 319/4/3
f 321/1/3 309/1/3 308/1/3
f 322/1/3 309/1/3 321/1/3
f 323/1/3 310/1/3 304/1/3
f 324/1/3 310/1/3 323/1/3
f 325/1/3 312/1/3 311/1/3
f 326/1/3 312/1/3 325/1/3
f 327/2/3 314/2/3 313/2/3
f 328/2/3 314/2/3 327/2/3
f 329/4/3 317/4/3 316/4/3
f 330/3/3 318/3/3 317/3/3
f 330/4/3 317/4/3 329/4/3
f 331/4/3 319/4/3 318/4/3
f 331/3/3 318/3/3 330/3/3
f 332/4/3 319/4/3 331/4/3
f 339/1/3 334/1/3 333/1/3
f 340/1/3 334/1/3 339/1/3
f 345/6/3 336/6/3 335/6/3
f 346/6/3 336/6/3 345/6/3
f 351/6/3 341/6/3 340/6/3
f 352/6/3 343/6/3 342/6/3
f 353/6/3 343/6/3 352/6/3
f 354/6/3 345/6/3 344/6/3
f 355/6/3 345/6/3 354/6/3
f 357/1/3 338/1/3 337/1/3
f 358/1/3 338/1/3 357/1/3
f 359/1/3 338/1/3 358/1/3
f 360/4/3 348/4/3 347/4/3
f 361/4/3 348/4/3 360/4/3
f 362/4/3 350/4/3 349/4/3
f 363/4/3 350/4/3 362/4/3
f 364/6/3 341/6/3 351/6/3
f 365/1/3 357/1/3 356/1/3
f 366/2/3 358/2/3 357/2/3
f 366/1/3 357/1/3 365/1/3
f 367/6/3 364/6/3 351/6/3
f 368/1/3 365/1/3 356/1/3
f 368/2/3 366/2/3 365/2/3
f 369/2/3 358/2/3 366/2/3
f 369/2/3 366/2/3 368/2/3
f 370/6/3 367/6/3 351/6/3
f 374/6/3 356/6/3 355/6/3
f 375/1/3 368/1/3 356/1/3
f 375/1/3 369/1/3 368/1/3
f 375/6/3 356/6/3 374/6/3
f 376/2/3 358/2/3 369/2/3
f 376/1/3 369/1/3 375/1/3
f 377/2/3 358/2/3 376/2/3
f 384/6/3 367/6/3 370/6/3
f 385/6/3 367/6/3 384/6/3
f 386/6/3 372/6/3 371/6/3
f 387/6/3 372/6/3 386/6/3
f 388/6/3 374/6/3 373/6/3
f 389/6/3 374/6/3 388/6/3
f 391/4/3 380/4/3 379/4/3
f 392/4/3 380/4/3 391/4/3
f 393/4/3 382/4/3 381/4/3
f 394/4/3 382/4/3 393/4/3
f 395/1/3 384/1/3 383/1/3
f 396/1/3 384/1/3 395/1/3
f 397/6/3 390/6/3 389/6/3
f 398/6/3 390/6/3 397/6/3
f 399/1/3 378/1/3 377/1/3
f 399/1/3 377/1/3 376/1/3
f 400/1/3 378/1/3 399/1/3
f 403/1/3 402/1/3 401/1/3
f 404/1/3 402/1/3 403/1/3
f 412/6/3 406/6/3 405/6/3
f 413/1/3 407/1/3 406/1/3
f 413/6/3 406/6/3 412/6/3
f 414/1/3 407/1/3 413/1/3
f 415/1/3 409/1/3 408/1/3
f 416/1/3 409/1/3 415/1/3
f 418/1/3 411/1/3 410/1/3
f 419/1/3 411/1/3 418/1/3
f 423/6/3 416/6/3 415/6/3
f 424/2/3 417/2/3 416/2/3
f 424/6/3 416/6/3 423/6/3
f 425/2/3 417/2/3 424/2/3
f 428/6/3 421/6/3 420/6/3
f 429/1/3 422/1/3 421/1/3
f 429/6/3 421/6/3 428/6/3
f 430/1/3 422/1/3 429/1/3
f 431/1/3 424/1/3 423/1/3
f 432/1/3 424/1/3 431/1/3
f 433/1/3 427/1/3 426/1/3
f 434/1/3 427/1/3 433/1/3
f 437/1/3 436/1/3 435/1/3
f 438/1/3 436/1/3 437/1/3
f 441/2/3 440/2/3 439/2/3
f 442/2/3 440/2/3 441/2/3
f 445/2/3 444/2/3 443/2/3
f 446/2/3 444/2/3 445/2/3
f 447/6/4 448/6/4 451/6/4
f 451/6/4 448/6/4 452/6/4
f 449/1/4 450/1/4 453/1/4
f 453/1/4 450/1/4 454/1/4
f 455/6/4 456/6/4 460/6/4
f 456/1/4 457/1/4 461/1/4
f 460/6/4 456/6/4 461/6/4
f 461/1/4 457/1/4 462/1/4
f 458/1/4 459/1/4 463/1/4
f 463/1/4 459/1/4 464/1/4
f 465/6/4 466/6/4 470/6/4
f 466/1/4 467/1/4 471/1/4
f 470/6/4 466/6/4 471/6/4
f 471/1/4 467/1/4 472/1/4
f 468/1/4 469/1/4 473/1/4
f 473/1/4 469/1/4 474/1/4
f 475/6/4 476/6/4 479/6/4
f 479/6/4 476/6/4 480/6/4
f 477/1/4 478/1/4 481/1/4
f 481/1/4 478/1/4 482/1/4
f 483/2/4 484/2/4 485/2/4
f 485/2/4 484/2/4 486/2/4
f 486/2/4 484/2/4 487/2/4
f 485/6/4 486/6/4 489/6/4
f 487/1/4 488/1/4 489/1/4
f 486/1/4 487/1/4 489/1/4
f 489/1/4 488/1/4 490/1/4
f 490/1/4 488/1/4 491/1/4
f 485/6/4 489/6/4 493/6/4
f 489/2/4 490/2/4 493/2/4
f 490/6/4 491/6/4 494/6/4
f 493/2/4 490/2/4 494/2/4
f 491/2/4 492/2/4 495/2/4
f 494/6/4 491/6/4 495/6/4
f 495/2/4 492/2/4 496/2/4
f 485/6/4 493/6/4 497/6/4
f 493/1/4 494/1/4 498/1/4
f 497/6/4 493/6/4 498/6/4
f 494/1/4 495/1/4 498/1/4
f 498/1/4 495/1/4 499/1/4
f 499/1/4 495/1/4 500/1/4
f 497/2/4 498/2/4 501/2/4
f 498/2/4 499/2/4 501/2/4
f 501/2/4 499/2/4 502/2/4
f 503/1/4 504/1/4 507/1/4
f 507/1/4 504/1/4 508/1/4
f 505/1/4 506/1/4 515/1/4
f 515/1/4 506/1/4 516/1/4
f 511/4/4 512/4/4 517/4/4
f 517/4/4 512/4/4 518/4/4
f 513/4/4 514/4/4 519/4/4
f 519/4/4 514/4/4 520/4/4
f 509/6/4 510/6/4 529/6/4
f 529/6/4 510/6/4 530/6/4
f 523/4/4 524/4/4 531/4/4
f 531/4/4 524/4/4 532/4/4
f 525/4/4 526/4/4 533/4/4
f 533/4/4 526/4/4 534/4/4
f 527/1/4 528/1/4 535/1/4
f 535/1/4 528/1/4 536/1/4
f 521/1/4 522/1/4 537/1/4
f 537/1/4 522/1/4 538/1/4
f 539/6/4 540/6/4 543/6/4
f 543/6/4 540/6/4 544/6/4
f 541/4/4 542/4/4 546/4/4
f 546/4/4 542/4/4 547/4/4
f 544/6/4 540/6/4 550/6/4
f 546/4/4 547/4/4 551/4/4
f 547/4/4 548/4/4 551/4/4
f 545/4/4 546/4/4 551/4/4
f 551/4/4 548/4/4 552/4/4
f 552/4/4 548/4/4 553/4/4
f 553/4/4 548/4/4 554/4/4
f 549/6/4 550/6/4 555/6/4
f 550/6/4 540/6/4 556/6/4
f 555/6/4 550/6/4 556/6/4
f 552/4/4 553/4/4 557/4/4
f 557/4/4 553/4/4 558/4/4
f 559/1/4 560/1/4 561/1/4
f 561/1/4 560/1/4 562/1/4
f 567/6/5 564/6/5 563/6/5
f 568/6/5 564/6/5 567/6/5
f 569/6/5 566/6/5 565/6/5
f 570/6/5 566/6/5 569/6/5
f 574/1/5 572/1/5 571/1/5
f 575/1/5 572/1/5 574/1/5
f 578/1/5 574/1/5 573/1/5
f 579/6/5 575/6/5 574/6/5
f 579/1/5 574/1/5 578/1/5
f 580/1/5 576/1/5 575/1/5
f 580/6/5 575/6/5 579/6/5
f 581/1/5 576/1/5 580/1/5
f 583/6/5 579/6/5 578/6/5
f 583/6/5 580/6/5 579/6/5
f 583/6/5 581/6/5 580/6/5
f 584/6/5 581/6/5 583/6/5
f 585/6/5 581/6/5 584/6/5
f 586/6/5 581/6/5 585/6/5
f 587/6/5 583/6/5 578/6/5
f 588/6/5 585/6/5 584/6/5
f 589/6/5 585/6/5 588/6/5
f 590/6/5 581/6/5 586/6/5
f 591/1/5 578/1/5 577/1/5
f 592/6/5 590/6/5 589/6/5
f 592/1/5 578/1/5 591/1/5
f 592/6/5 589/6/5 588/6/5
f 592/6/5 587/6/5 578/6/5
f 592/6/5 588/6/5 587/6/5
f 593/1/5 582/1/5 581/1/5
f 593/6/5 590/6/5 592/6/5
f 593/6/5 581/6/5 590/6/5
f 594/1/5 582/1/5 593/1/5
f 595/6/5 593/6/5 592/6/5
f 596/6/5 593/6/5 595/6/5
f 597/6/5 593/6/5 596/6/5
f 598/6/5 593/6/5 597/6/5
f 599/1/5 597/1/5 596/1/5
f 600/1/5 597/1/5 599/1/5
f 605/1/5 602/1/5 601/1/5
f 606/6/5 603/6/5 602/6/5
f 606/1/5 602/1/5 605/1/5
f 607/1/5 604/1/5 603/1/5
f 607/6/5 603/6/5 606/6/5
f 608/1/5 604/1/5 607/1/5
f 613/1/5 610/1/5 609/1/5
f 614/1/5 610/1/5 613/1/5
f 615/1/5 612/1/5 611/1/5
f 616/1/5 612/1/5 615/1/5
f 622/2/5 618/2/5 617/2/5
f 623/2/5 618/2/5 622/2/5
f 624/2/5 620/2/5 619/2/5
f 625/2/5 620/2/5 624/2/5
f 627/6/5 622/6/5 621/6/5
f 628/6/5 622/6/5 627/6/5
f 629/6/5 626/6/5 625/6/5
f 630/6/5 626/6/5 629/6/5
f 635/1/5 632/1/5 631/1/5
f 636/1/5 632/1/5 635/1/5
f 637/1/5 634/1/5 633/1/5
f 638/1/5 634/1/5 637/1/5
f 639/1/5 635/1/5 631/1/5
f 642/1/5 634/1/5 638/1/5
f 643/1/5 640/1/5 639/1/5
f 643/1/5 639/1/5 631/1/5
f 644/1/5 640/1/5 643/1/5
f 645/1/5 642/1/5 641/1/5
f 646/1/5 634/1/5 642/1/5
f 646/1/5 642/1/5 645/1/5
f 650/2/5 648/2/5 647/2/5
f 651/2/5 648/2/5 650/2/5
f 653/1/5 651/1/5 650/1/5
f 654/1/5 651/1/5 653/1/5
f 655/4/5 650/4/5 649/4/5
f 655/1/5 653/1/5 650/1/5
f 656/1/5 653/1/5 655/1/5
f 657/1/5 651/1/5 654/1/5
f 658/4/5 652/4/5 651/4/5
f 658/1/5 651/1/5 657/1/5
f 659/4/5 656/4/5 655/4/5
f 659/4/5 657/4/5 656/4/5
f 659/4/5 658/4/5 657/4/5
f 659/4/5 655/4/5 649/4/5
f 660/4/5 658/4/5 659/4/5
f 661/4/5 652/4/5 658/4/5
f 661/4/5 658/4/5 660/4/5
f 662/4/5 652/4/5 661/4/5
f 663/4/5 661/4/5 660/4/5
f 664/4/5 661/4/5 663/4/5
f 669/4/5 666/4/5 665/4/5
f 670/4/5 666/4/5 669/4/5
f 671/4/5 668/4/5 667/4/5
f 672/4/5 668/4/5 671/4/5
f 677/4/5 674/4/5 673/4/5
f 678/4/5 674/4/5 677/4/5
f 679/4/5 676/4/5 675/4/5
f 680/4/5 676/4/5 679/4/5
f 685/1/5 682/1/5 681/1/5
f 686/1/5 682/1/5 685/1/5
f 687/1/5 684/1/5 683/1/5
f 688/1/5 684/1/5 687/1/5
f 689/1/6 690/1/6 692/1/6
f 692/1/6 690/1/6 693/1/6
f 691/1/6 692/1/6 696/1/6
f 692/6/6 693/6/6 697/6/6
f 696/1/6 692/1/6 697/1/6
f 693/1/6 694/1/6 698/1/6
f 697/6/6 693/6/6 698/6/6
f 698/1/6 694/1/6 699/1/6
f 695/1/6 696/1/6 701/1/6
f 701/1/6 696/1/6 702/1/6
f 699/1/6 700/1/6 703/1/6
f 703/1/6 700/1/6 704/1/6
f 705/1/6 706/1/6 707/1/6
f 707/1/6 706/1/6 708/1/6
f 709/1/6 710/1/6 713/1/6
f 713/1/6 710/1/6 714/1/6
f 711/1/6 712/1/6 715/1/6
f 715/1/6 712/1/6 716/1/6
f 717/1/6 718/1/6 721/1/6
f 721/1/6 718/1/6 722/1/6
f 719/1/6 720/1/6 723/1/6
f 723/1/6 720/1/6 724/1/6
f 725/6/6 726/6/6 727/6/6
f 727/6/6 726/6/6 728/6/6
f 729/1/6 730/1/6 731/1/6
f 731/1/6 730/1/6 732/1/6
f 734/6/6 735/6/6 737/6/6
f 735/6/6 736/6/6 737/6/6
f 733/6/6 734/6/6 737/6/6
f 737/6/6 736/6/6 738/6/6
f 739/2/6 740/2/6 744/2/6
f 744/2/6 740/2/6 745/2/6
f 741/2/6 742/2/6 746/2/6
f 746/2/6 742/2/6 747/2/6
f 744/6/6 745/6/6 749/6/6
f 743/6/6 744/6/6 749/6/6
f 749/6/6 745/6/6 750/6/6
f 750/6/6 745/6/6 751/6/6
f 747/6/6 748/6/6 752/6/6
f 746/6/6 747/6/6 752/6/6
f 752/6/6 748/6/6 753/6/6
f 753/6/6 748/6/6 754/6/6
f 755/2/6 756/2/6 757/2/6
f 757/2/6 756/2/6 758/2/6
f 758/2/6 756/2/6 759/2/6
f 759/2/6 756/2/6 760/2/6
f 761/1/6 762/1/6 765/1/6
f 763/1/6 764/1/6 768/1/6
f 765/1/6 766/1/6 769/1/6
f 761/1/6 765/1/6 769/1/6
f 769/1/6 766/1/6 770/1/6
f 767/1/6 768/1/6 771/1/6
f 768/1/6 764/1/6 772/1/6
f 771/1/6 768/1/6 772/1/6
f 761/1/6 769/1/6 773/1/6
f 773/1/6 769/1/6 774/1/6
f 772/1/6 764/1/6 775/1/6
f 775/1/6 764/1/6 776/1/6
f 777/4/6 778/4/6 781/4/6
f 781/4/6 778/4/6 782/4/6
f 779/4/6 780/4/6 783/4/6
f 783/4/6 780/4/6 784/4/6
f 785/1/6 786/1/6 789/1/6
f 789/1/6 786/1/6 790/1/6
f 787/1/6 788/1/6 791/1/6
f 791/1/6 788/1/6 792/1/6
f 793/4/6 794/4/6 797/4/6
f 797/4/6 794/4/6 798/4/6
f 795/4/6 796/4/6 799/4/6
f 799/4/6 796/4/6 800/4/6
f 801/4/6 802/4/6 804/4/6
f 804/4/6 802/4/6 805/4/6
f 803/4/6 804/4/6 807/4/6
f 805/4/6 806/4/6 807/4/6
f 804/4/6 805/4/6 807/4/6
f 807/4/6 806/4/6 808/4/6
f 808/4/6 806/4/6 809/4/6
f 809/4/6 806/4/6 810/4/6
f 810/4/6 806/4/6 811/4/6
f 811/4/6 806/4/6 812/4/6
f 807/6/6 808/6/6 813/6/6
f 813/6/6 808/6/6 814/6/6
f 809/6/6 810/6/6 815/6/6
f 815/6/6 810/6/6 816/6/6
f 811/6/6 812/6/6 817/6/6
f 817/6/6 812/6/6 818/6/6
f 815/4/6 816/4/6 819/4/6
f 813/4/6 814/4/6 819/4/6
f 817/4/6 818/4/6 819/4/6
f 816/4/6 817/4/6 819/4/6
f 814/4/6 815/4/6 819/4/6
f 819/4/6 818/4/6 820/4/6
f 820/4/6 818/4/6 821/4/6
f 821/4/6 818/4/6 822/4/6
f 820/4/6 821/4/6 823/4/6
f 823/4/6 821/4/6 824/4/6
f 825/1/6 826/1/6 829/1/6
f 829/1/6 826/1/6 830/1/6
f 827/1/6 828/1/6 831/1/6
f 831/1/6 828/1/6 832/1/6
